<svg xmlns="http://www.w3.org/2000/svg" width="474.087" height="521.12" viewBox="0 0 474.087 521.12">
  <g id="Group_835" data-name="Group 835" transform="translate(-346.5 -191.5)">
    <g id="Group_489" data-name="Group 489" transform="translate(347 192)">
      <path id="Path_573" data-name="Path 573" d="M473.087,346.074V174.017A88.127,88.127,0,0,0,429.15,97.81L280.434,11.8a87.613,87.613,0,0,0-87.812,0L43.936,97.81A88,88,0,0,0,0,174.017V346.074a87.926,87.926,0,0,0,43.936,76.207l148.686,86.044a87.613,87.613,0,0,0,87.812,0L429.15,422.281a88.053,88.053,0,0,0,43.936-76.207" transform="translate(0 -0.001)" fill="#04143c" stroke="rgba(0,0,0,0)" stroke-miterlimit="10" stroke-width="1"/>
    </g>
    <g id="Group_824" data-name="Group 824" transform="translate(174.52 -198.527)">
      <path id="Union_4" data-name="Union 4" d="M2.883,151.675l.012-.026-.052.067A126.63,126.63,0,0,1,.282,116.5C4.2,58.149,56.95,4.882,115.139.36Q120.121,0,124.983,0A124.643,124.643,0,0,1,199.14,24.372c1.321,1,2.6,1.961,3.882,3C220.184,41.1,216.711,65.495,201.4,76.466a.348.348,0,0,1-.217.132,30.257,30.257,0,0,1-17.689,5.483h-1a20.156,20.156,0,0,1-10.2-2.8,23.855,23.855,0,0,1-4.122-2.881A64.75,64.75,0,0,0,124.983,59.91c-.8,0-1.6,0-2.4.04-28.534,1.041-52.866,21.13-60.35,47.784h-.011a63.476,63.476,0,0,0-2.27,14.167A65.271,65.271,0,0,0,97.21,183.891c16.649,7.844,27.814,24.012,27.814,42.461v23.612A124.962,124.962,0,0,1,2.883,151.675Z" transform="translate(262.48 515.527)" fill="#fff"/>
      <g id="Group_738" data-name="Group 738" transform="translate(555.25 713.444) rotate(135)">
        <path id="Path_960" data-name="Path 960" d="M69.559,187.3a4.133,4.133,0,0,1-2.924-1.223L18.2,137.636a62.276,62.276,0,0,1,0-87.983L66.635,1.213A4.15,4.15,0,1,1,72.5,7.081L24.043,55.521a53.966,53.966,0,0,0,0,76.247l48.439,48.439a4.158,4.158,0,0,1-2.924,7.092Z" transform="translate(0 0)" fill="#9fb3c3"/>
        <path id="Path_961" data-name="Path 961" d="M24.116,87.517a4.133,4.133,0,0,1-2.924-1.223L11.239,76.34a38.4,38.4,0,0,1,0-54.287l20.84-20.84a4.15,4.15,0,1,1,5.868,5.868l-20.84,20.84a30.087,30.087,0,0,0,0,42.55l9.953,9.953a4.158,4.158,0,0,1-2.924,7.092Z" transform="translate(38.579 41.762)" fill="#9fb3c3"/>
        <path id="Path_962" data-name="Path 962" d="M17.627,35.251A17.63,17.63,0,0,1,0,17.377,17.625,17.625,0,0,1,30.007,5.08,17.625,17.625,0,0,1,17.627,35.251Zm0-26.957H17.5A9.485,9.485,0,0,0,8.317,17.48a9.311,9.311,0,0,0,9.31,9.456,9.331,9.331,0,0,0,0-18.662Z" transform="translate(63.772 175.002)" fill="#9fb3c3"/>
        <path id="Path_963" data-name="Path 963" d="M17.627,35.251A17.63,17.63,0,0,1,0,17.377a17.625,17.625,0,0,1,30.005-12.3A17.625,17.625,0,0,1,17.627,35.251Zm0-26.957H17.5A9.518,9.518,0,0,0,8.3,17.481a9.169,9.169,0,0,0,2.7,6.677A9.326,9.326,0,1,0,17.627,8.274Z" transform="translate(66.385 20.062)" fill="#9fb3c3"/>
      </g>
    </g>
  </g>
</svg>
