<svg xmlns="http://www.w3.org/2000/svg" xmlns:xlink="http://www.w3.org/1999/xlink" width="435.072" height="366.665" viewBox="0 0 435.072 366.665">
  <defs>
    <clipPath id="clip-path">
      <rect id="Rectangle_17695" data-name="Rectangle 17695" width="264.227" height="207.489" fill="none"/>
    </clipPath>
    <clipPath id="clip-path-2">
      <rect id="Rectangle_17698" data-name="Rectangle 17698" width="172.777" height="155.92" fill="none"/>
    </clipPath>
    <clipPath id="clip-path-3">
      <rect id="Rectangle_17699" data-name="Rectangle 17699" width="147.636" height="105.942" fill="none"/>
    </clipPath>
    <clipPath id="clip-path-5">
      <rect id="Rectangle_17697" data-name="Rectangle 17697" width="207.265" height="163.593" fill="none"/>
    </clipPath>
  </defs>
  <g id="Group_492" data-name="Group 492" transform="translate(-791.928 -180.928)">
    <g id="Group_330" data-name="Group 330" transform="translate(863.773 288.363)">
      <g id="Group_329" data-name="Group 329" transform="translate(0 0)" clip-path="url(#clip-path)">
        <path id="Path_496" data-name="Path 496" d="M257.011,174.871H7.216A7.215,7.215,0,0,1,0,167.656V7.215A7.216,7.216,0,0,1,7.216,0h249.8a7.216,7.216,0,0,1,7.216,7.216V167.656a7.215,7.215,0,0,1-7.216,7.216" transform="translate(0 0)" fill="#69afc1"/>
        <path id="Path_497" data-name="Path 497" d="M4.558,161.021V8.166A3.608,3.608,0,0,1,8.166,4.558H254.214a3.608,3.608,0,0,1,3.608,3.608V161.021a3.608,3.608,0,0,1-3.608,3.608H8.166a3.608,3.608,0,0,1-3.608-3.608" transform="translate(0.924 0.924)" fill="#fff"/>
        <rect id="Rectangle_17694" data-name="Rectangle 17694" width="64.139" height="21.745" transform="translate(100.044 174.871)" fill="#305863"/>
        <path id="Path_498" data-name="Path 498" d="M160.573,174.362H75.33a5.436,5.436,0,0,1,0-10.873h85.243a5.436,5.436,0,0,1,0,10.873" transform="translate(14.162 33.127)" fill="#69afc1"/>
      </g>
    </g>
    <g id="Group_332" data-name="Group 332" transform="translate(792.428 362.848)">
      <g id="Group_482" data-name="Group 482" transform="translate(0 0)">
        <path id="Path_499" data-name="Path 499" d="M128.132,177.636H14.56A14.561,14.561,0,0,1,0,163.076V14.56A14.561,14.561,0,0,1,14.56,0H128.132a14.559,14.559,0,0,1,14.56,14.56V163.076a14.559,14.559,0,0,1-14.56,14.56" stroke="#fff" stroke-width="1"/>
        <line id="Line_131" data-name="Line 131" x2="44.772" transform="translate(25.481 25.481)" fill="none" stroke="#fff" stroke-linecap="round" stroke-linejoin="round" stroke-width="1.16"/>
        <line id="Line_132" data-name="Line 132" x2="30.82" transform="translate(25.481 34.945)" fill="none" stroke="#fff" stroke-linecap="round" stroke-linejoin="round" stroke-width="1.16"/>
        <line id="Line_133" data-name="Line 133" x2="13.832" transform="translate(63.156 34.945)" fill="none" stroke="#8db0bd" stroke-linecap="round" stroke-linejoin="round" stroke-width="1.16"/>
        <line id="Line_134" data-name="Line 134" x2="8.918" transform="translate(83.358 34.945)" fill="none" stroke="#fff" stroke-linecap="round" stroke-linejoin="round" stroke-width="1.16"/>
        <line id="Line_135" data-name="Line 135" x2="19.413" transform="translate(95.613 44.409)" fill="none" stroke="#fff" stroke-linecap="round" stroke-linejoin="round" stroke-width="1.16"/>
        <line id="Line_136" data-name="Line 136" x2="21.839" transform="translate(67.228 44.409)" fill="none" stroke="#fff" stroke-linecap="round" stroke-linejoin="round" stroke-width="1.16"/>
        <line id="Line_137" data-name="Line 137" x2="36.396" transform="translate(25.481 44.409)" fill="none" stroke="#e89b71" stroke-linecap="round" stroke-linejoin="round" stroke-width="1.16"/>
        <line id="Line_138" data-name="Line 138" x2="34.945" transform="translate(45.501 53.873)" fill="none" stroke="#fff" stroke-linecap="round" stroke-linejoin="round" stroke-width="1.16"/>
        <line id="Line_139" data-name="Line 139" x2="13.832" transform="translate(25.481 53.873)" fill="none" stroke="#fff" stroke-linecap="round" stroke-linejoin="round" stroke-width="1.16"/>
        <line id="Line_140" data-name="Line 140" x2="32.396" transform="translate(37.857 74.622)" fill="none" stroke="#d7a56c" stroke-linecap="round" stroke-linejoin="round" stroke-width="1.16"/>
        <line id="Line_141" data-name="Line 141" x2="30.82" transform="translate(25.481 84.086)" fill="none" stroke="#fff" stroke-linecap="round" stroke-linejoin="round" stroke-width="1.16"/>
        <line id="Line_142" data-name="Line 142" x2="6.917" transform="translate(63.156 84.086)" fill="none" stroke="#265559" stroke-linecap="round" stroke-linejoin="round" stroke-width="1.16"/>
        <line id="Line_143" data-name="Line 143" x2="15.652" transform="translate(99.375 93.55)" fill="none" stroke="#fff" stroke-linecap="round" stroke-linejoin="round" stroke-width="1.16"/>
        <line id="Line_144" data-name="Line 144" x2="66.797" transform="translate(25.481 93.55)" fill="none" stroke="#f8e6da" stroke-linecap="round" stroke-linejoin="round" stroke-width="1.16"/>
        <line id="Line_145" data-name="Line 145" x2="27.209" transform="translate(58.947 103.014)" fill="none" stroke="#8db0bd" stroke-linecap="round" stroke-linejoin="round" stroke-width="1.16"/>
        <line id="Line_146" data-name="Line 146" x2="24.39" transform="translate(25.481 103.014)" fill="none" stroke="#fff" stroke-linecap="round" stroke-linejoin="round" stroke-width="1.16"/>
        <line id="Line_147" data-name="Line 147" x2="44.772" transform="translate(25.481 123.763)" fill="none" stroke="#fff" stroke-linecap="round" stroke-linejoin="round" stroke-width="1.16"/>
        <line id="Line_148" data-name="Line 148" x2="30.82" transform="translate(25.481 133.227)" fill="none" stroke="#d7a56c" stroke-linecap="round" stroke-linejoin="round" stroke-width="1.16"/>
        <line id="Line_149" data-name="Line 149" x2="32.457" transform="translate(63.156 133.227)" fill="none" stroke="#8db0bd" stroke-linecap="round" stroke-linejoin="round" stroke-width="1.16"/>
        <line id="Line_150" data-name="Line 150" x2="13.347" transform="translate(103.622 133.227)" fill="none" stroke="#fff" stroke-linecap="round" stroke-linejoin="round" stroke-width="1.16"/>
        <line id="Line_151" data-name="Line 151" x2="18.198" transform="translate(25.481 142.691)" fill="none" stroke="#fff" stroke-linecap="round" stroke-linejoin="round" stroke-width="1.16"/>
      </g>
    </g>
    <g id="Group_336" data-name="Group 336" transform="translate(832.844 180.928)">
      <g id="Group_335" data-name="Group 335" transform="translate(-0.001 0)" clip-path="url(#clip-path-2)">
        <path id="Path_504" data-name="Path 504" d="M157.937,157.936H17.009A17.009,17.009,0,0,1,0,140.927V17.008A17.008,17.008,0,0,1,17.009,0H157.937a17.008,17.008,0,0,1,17.009,17.008V140.927a17.009,17.009,0,0,1-17.009,17.008" transform="translate(-0.817 -1.06)" fill="#215467"/>
        <path id="Path_505" data-name="Path 505" d="M140,92.34H17.9A12.15,12.15,0,0,1,5.75,80.191V18.232A12.15,12.15,0,0,1,17.9,6.083H140a12.15,12.15,0,0,1,12.149,12.149V80.191A12.15,12.15,0,0,1,140,92.34" transform="translate(7.405 7.637)" fill="#e6e6e6"/>
        <path id="Path_506" data-name="Path 506" d="M5.75,41.7,27.618,19.833,81.377,73.592H17.9A12.15,12.15,0,0,1,5.75,61.443Z" transform="translate(7.405 27.297)" fill="#048f89"/>
        <path id="Path_507" data-name="Path 507" d="M19.5,82.259,87.989,13.771l45.1,45.1V69.3a12.149,12.149,0,0,1-12.052,12.149Z" transform="translate(27.064 18.629)" fill="#048f89"/>
        <path id="Path_508" data-name="Path 508" d="M38.138,19.445a7.694,7.694,0,1,1-7.7-7.7,7.7,7.7,0,0,1,7.7,7.7" transform="translate(31.711 15.74)" fill="#d7a46e"/>
      </g>
    </g>
    <g id="Group_341" data-name="Group 341" transform="translate(1048.035 235.393)">
      <g id="Group_338" data-name="Group 338" transform="translate(0 0)">
        <g id="Group_337" data-name="Group 337" clip-path="url(#clip-path-3)">
          <path id="Path_509" data-name="Path 509" d="M139.434,95.538H8.2a8.2,8.2,0,0,1-8.2-8.2V6H147.636V87.336a8.2,8.2,0,0,1-8.2,8.2" transform="translate(0 10.404)" fill="#048f89"/>
          <path id="Path_510" data-name="Path 510" d="M147.636,16.4H0V8.2A8.2,8.2,0,0,1,8.2,0H139.434a8.2,8.2,0,0,1,8.2,8.2Z" fill="#25353a"/>
        </g>
      </g>
      <text id="_" data-name="&lt; / &gt;" transform="translate(25.583 67.774)" fill="#fff" font-size="38" font-family="SegoeUI, Segoe UI"><tspan x="0" y="0">&lt; / &gt;</tspan></text>
      <g id="Group_340" data-name="Group 340" transform="translate(0 0)">
        <g id="Group_339" data-name="Group 339" clip-path="url(#clip-path-3)">
          <line id="Line_156" data-name="Line 156" x2="15.72" transform="translate(17.6 8.202)" fill="none" stroke="#fff" stroke-linecap="round" stroke-linejoin="round" stroke-width="1"/>
          <line id="Line_157" data-name="Line 157" x2="6.835" transform="translate(37.08 8.202)" fill="none" stroke="#fff" stroke-linecap="round" stroke-linejoin="round" stroke-width="1"/>
        </g>
      </g>
    </g>
    <g id="Group_334" data-name="Group 334" transform="translate(1019.734 384)">
      <g id="Group_333" data-name="Group 333" transform="translate(0 0)" clip-path="url(#clip-path-5)">
        <path id="Path_500" data-name="Path 500" d="M196.162,163.593H11.1A11.1,11.1,0,0,1,0,152.49V11.1A11.1,11.1,0,0,1,11.1,0H196.162a11.1,11.1,0,0,1,11.1,11.1V152.49a11.1,11.1,0,0,1-11.1,11.1" transform="translate(0 0.001)" fill="#e6e6e6"/>
        <path id="Path_501" data-name="Path 501" d="M102.886,46.5A34.051,34.051,0,1,1,68.835,12.449,34.051,34.051,0,0,1,102.886,46.5" transform="translate(35.555 12.908)" fill="#048f89"/>
        <path id="Path_502" data-name="Path 502" d="M67.732,34.72l-18.668-12.3a2.406,2.406,0,0,0-3.73,2.008v24.61a2.407,2.407,0,0,0,3.73,2.01L67.732,38.737a2.4,2.4,0,0,0,0-4.017" transform="translate(47.827 22.362)" fill="#f5f5f5"/>
        <path id="Path_503" data-name="Path 503" d="M196.162,103.739H11.1A11.1,11.1,0,0,1,0,92.636V58.585H207.265V92.636a11.1,11.1,0,0,1-11.1,11.1" transform="translate(0 59.855)" fill="#215467"/>
        <line id="Line_152" data-name="Line 152" x2="54.037" transform="translate(16.285 130.282)" fill="none" stroke="#f5f5f5" stroke-linecap="round" stroke-linejoin="round" stroke-width="3.295"/>
        <line id="Line_153" data-name="Line 153" x2="91.05" transform="translate(88.088 130.282)" fill="none" stroke="#f5f5f5" stroke-linecap="round" stroke-linejoin="round" stroke-width="3.295"/>
        <line id="Line_154" data-name="Line 154" x2="27.02" transform="translate(16.285 148.048)" fill="none" stroke="#f5f5f5" stroke-linecap="round" stroke-linejoin="round" stroke-width="3.295"/>
        <line id="Line_155" data-name="Line 155" x2="51.817" transform="translate(57.739 148.048)" fill="none" stroke="#f5f5f5" stroke-linecap="round" stroke-linejoin="round" stroke-width="3.295"/>
      </g>
    </g>
  </g>
</svg>
