<svg id="Group_315" data-name="Group 315" xmlns="http://www.w3.org/2000/svg" xmlns:xlink="http://www.w3.org/1999/xlink" width="33.84" height="33.84" viewBox="0 0 33.84 33.84">
  <defs>
    <clipPath id="clip-path">
      <path id="Color" d="M5.639,33.84A5.648,5.648,0,0,1,0,28.2V5.639A5.648,5.648,0,0,1,5.639,0H16.92a1.88,1.88,0,0,1,0,3.76H5.639a1.882,1.882,0,0,0-1.88,1.88V28.2a1.882,1.882,0,0,0,1.88,1.88H28.2a1.882,1.882,0,0,0,1.88-1.88V16.92a1.88,1.88,0,1,1,3.76,0V28.2A5.648,5.648,0,0,1,28.2,33.84Zm9.952-15.59a1.878,1.878,0,0,1,0-2.66L27.407,3.775,24.431,3.76A1.88,1.88,0,0,1,24.441,0h.008l7.514.037a1.881,1.881,0,0,1,1.871,1.878L33.84,9.4a1.88,1.88,0,0,1-1.878,1.883h0A1.88,1.88,0,0,1,30.081,9.4l0-2.983L18.25,18.25a1.881,1.881,0,0,1-2.658,0Z"/>
    </clipPath>
  </defs>
  <path id="Color-2" data-name="Color" d="M5.639,33.84A5.648,5.648,0,0,1,0,28.2V5.639A5.648,5.648,0,0,1,5.639,0H16.92a1.88,1.88,0,0,1,0,3.76H5.639a1.882,1.882,0,0,0-1.88,1.88V28.2a1.882,1.882,0,0,0,1.88,1.88H28.2a1.882,1.882,0,0,0,1.88-1.88V16.92a1.88,1.88,0,1,1,3.76,0V28.2A5.648,5.648,0,0,1,28.2,33.84Zm9.952-15.59a1.878,1.878,0,0,1,0-2.66L27.407,3.775,24.431,3.76A1.88,1.88,0,0,1,24.441,0h.008l7.514.037a1.881,1.881,0,0,1,1.871,1.878L33.84,9.4a1.88,1.88,0,0,1-1.878,1.883h0A1.88,1.88,0,0,1,30.081,9.4l0-2.983L18.25,18.25a1.881,1.881,0,0,1-2.658,0Z" transform="translate(-0.001 0)"/>
</svg>
