<svg xmlns="http://www.w3.org/2000/svg" width="314.623" height="274.678" viewBox="0 0 314.623 274.678">
  <g id="Group_836" data-name="Group 836" transform="translate(-262.48 -515.527)">
    <path id="Union_4" data-name="Union 4" d="M3.1,163l.013-.028-.055.072A136.082,136.082,0,0,1,.3,125.194C4.518,62.489,61.2,5.247,123.733.387Q129.087,0,134.313,0A133.947,133.947,0,0,1,214,26.192c1.419,1.075,2.8,2.107,4.172,3.225,18.443,14.746,14.711,40.967-1.745,52.757a.374.374,0,0,1-.233.142,32.515,32.515,0,0,1-19.009,5.892h-1.075A21.66,21.66,0,0,1,185.147,85.2a25.636,25.636,0,0,1-4.43-3.1,69.583,69.583,0,0,0-46.4-17.719c-.86,0-1.72,0-2.58.043-30.664,1.118-56.812,22.708-64.855,51.351h-.012A68.214,68.214,0,0,0,64.426,131a70.143,70.143,0,0,0,40.04,66.618c17.891,8.429,29.89,25.8,29.89,45.63v25.374A134.29,134.29,0,0,1,3.1,163Z" transform="translate(262.48 515.527)" fill="#fff"/>
    <g id="Group_738" data-name="Group 738" transform="translate(577.104 728.217) rotate(135)">
      <path id="Path_960" data-name="Path 960" d="M74.751,201.279a4.441,4.441,0,0,1-3.142-1.315L19.554,147.909a66.925,66.925,0,0,1,0-94.551L71.609,1.3A4.459,4.459,0,1,1,77.916,7.61L25.838,59.665a57.994,57.994,0,0,0,0,81.938l52.055,52.055a4.468,4.468,0,0,1-3.142,7.621Z" transform="translate(0 0)" fill="#9fb3c3"/>
      <path id="Path_961" data-name="Path 961" d="M25.916,94.049a4.441,4.441,0,0,1-3.142-1.315l-10.7-10.7a41.263,41.263,0,0,1,0-58.339l22.4-22.4A4.459,4.459,0,1,1,40.78,7.61l-22.4,22.4a32.333,32.333,0,0,0,0,45.727l10.7,10.7a4.468,4.468,0,0,1-3.142,7.621Z" transform="translate(41.459 44.88)" fill="#9fb3c3"/>
      <path id="Path_962" data-name="Path 962" d="M18.943,37.883A18.946,18.946,0,0,1,0,18.674,18.94,18.94,0,0,1,32.246,5.46a18.94,18.94,0,0,1-13.3,32.423Zm0-28.969h-.134a10.193,10.193,0,0,0-9.872,9.872A10.006,10.006,0,0,0,18.943,28.947a10.028,10.028,0,0,0,0-20.056Z" transform="translate(68.532 188.065)" fill="#9fb3c3"/>
      <path id="Path_963" data-name="Path 963" d="M18.943,37.883A18.946,18.946,0,0,1,0,18.674,18.94,18.94,0,0,1,32.246,5.46a18.94,18.94,0,0,1-13.3,32.423Zm0-28.969h-.134a10.229,10.229,0,0,0-9.894,9.872,9.854,9.854,0,0,0,2.9,7.175A10.022,10.022,0,1,0,18.943,8.891Z" transform="translate(71.34 21.559)" fill="#9fb3c3"/>
    </g>
  </g>
</svg>
