<svg id="Group_314" data-name="Group 314" xmlns="http://www.w3.org/2000/svg" xmlns:xlink="http://www.w3.org/1999/xlink" width="41.389" height="37.25" viewBox="0 0 41.389 37.25">
  <defs>
    <clipPath id="clip-path">
      <path id="Color" d="M31.042,37.25H10.348a2.069,2.069,0,1,1,0-4.138h8.277V28.973H6.208A6.216,6.216,0,0,1,0,22.763V6.208A6.215,6.215,0,0,1,6.208,0H35.18a6.215,6.215,0,0,1,6.208,6.208V22.763a6.216,6.216,0,0,1-6.208,6.21H22.763v4.138h8.279a2.069,2.069,0,1,1,0,4.138ZM6.208,4.138A2.072,2.072,0,0,0,4.138,6.208V22.763a2.072,2.072,0,0,0,2.069,2.069H35.18a2.072,2.072,0,0,0,2.069-2.069V6.208A2.072,2.072,0,0,0,35.18,4.138Z" transform="translate(0)"/>
    </clipPath>
  </defs>
  <path id="Color-2" data-name="Color" d="M31.042,37.25H10.348a2.069,2.069,0,1,1,0-4.138h8.277V28.973H6.208A6.216,6.216,0,0,1,0,22.763V6.208A6.215,6.215,0,0,1,6.208,0H35.18a6.215,6.215,0,0,1,6.208,6.208V22.763a6.216,6.216,0,0,1-6.208,6.21H22.763v4.138h8.279a2.069,2.069,0,1,1,0,4.138ZM6.208,4.138A2.072,2.072,0,0,0,4.138,6.208V22.763a2.072,2.072,0,0,0,2.069,2.069H35.18a2.072,2.072,0,0,0,2.069-2.069V6.208A2.072,2.072,0,0,0,35.18,4.138Z" transform="translate(0.001 0)"/>
</svg>
