<svg xmlns="http://www.w3.org/2000/svg" xmlns:xlink="http://www.w3.org/1999/xlink" width="39" height="32" viewBox="0 0 39 32">
  <defs>
    <clipPath id="clip-path">
      <path id="Color" d="M26,39H6a5.933,5.933,0,0,1-6-5.849V5.849A5.933,5.933,0,0,1,6,0H26a5.933,5.933,0,0,1,6,5.849v27.3A5.933,5.933,0,0,1,26,39ZM6,3.9a1.978,1.978,0,0,0-2,1.95v27.3A1.978,1.978,0,0,0,6,35.1H26a1.978,1.978,0,0,0,2-1.95V5.849A1.978,1.978,0,0,0,26,3.9ZM16,31.2a2.927,2.927,0,1,1,3-2.926A2.967,2.967,0,0,1,16,31.2Zm5-19.5H11a1.951,1.951,0,1,1,0-3.9H21a1.951,1.951,0,1,1,0,3.9Z" transform="translate(0.064 -0.311)"/>
    </clipPath>
  </defs>
  <g id="Group_61" data-name="Group 61" transform="translate(38.689 -0.064) rotate(90)">
    <path id="Color-2" data-name="Color" d="M26,39H6a5.933,5.933,0,0,1-6-5.849V5.849A5.933,5.933,0,0,1,6,0H26a5.933,5.933,0,0,1,6,5.849v27.3A5.933,5.933,0,0,1,26,39ZM6,3.9a1.978,1.978,0,0,0-2,1.95v27.3A1.978,1.978,0,0,0,6,35.1H26a1.978,1.978,0,0,0,2-1.95V5.849A1.978,1.978,0,0,0,26,3.9ZM16,31.2a2.927,2.927,0,1,1,3-2.926A2.967,2.967,0,0,1,16,31.2Zm5-19.5H11a1.951,1.951,0,1,1,0-3.9H21a1.951,1.951,0,1,1,0,3.9Z" transform="translate(0.064 -0.311)"/>
  </g>
</svg>
