<svg xmlns="http://www.w3.org/2000/svg" xmlns:xlink="http://www.w3.org/1999/xlink" width="36" height="36" viewBox="0 0 36 36">
  <defs>
    <clipPath id="clip-path">
      <path id="Color" d="M11.908,36a4,4,0,0,1-2.441-.829L5.738,32.339a4.25,4.25,0,0,1-.881-5.788,3.669,3.669,0,0,0,.416-3.342l-.1-.3a3.308,3.308,0,0,0-2.012-2.181l-.295-.1A4.22,4.22,0,0,1,.2,15.33L1.67,10.66a4.007,4.007,0,0,1,2.023-2.4,3.866,3.866,0,0,1,1.758-.422,3.922,3.922,0,0,1,1.271.213,3.37,3.37,0,0,0,1.091.181A3.506,3.506,0,0,0,9.92,7.515l.232-.177a3.44,3.44,0,0,0,1.32-2.718l0-.434A4.164,4.164,0,0,1,15.583,0l4.591,0a4.041,4.041,0,0,1,2.877,1.207,4.214,4.214,0,0,1,1.228,3.015l0,.5A3.208,3.208,0,0,0,25.525,7.3l.193.146a3.172,3.172,0,0,0,1.892.634,3.063,3.063,0,0,0,.976-.159l.611-.2a4.053,4.053,0,0,1,1.28-.209,3.992,3.992,0,0,1,1.837.447,4.142,4.142,0,0,1,2.077,2.48l1.416,4.538a4.236,4.236,0,0,1-2.637,5.273l-.361.12a3.459,3.459,0,0,0-2.179,2.315,3.518,3.518,0,0,0,.467,2.974l.468.674a4.29,4.29,0,0,1-.914,5.813l-3.71,2.8a4.006,4.006,0,0,1-2.434.822,4.141,4.141,0,0,1-.646-.051,4.07,4.07,0,0,1-2.717-1.724l-.212-.309a3.135,3.135,0,0,0-2.539-1.4q-.078,0-.157,0a3.183,3.183,0,0,0-2.569,1.38l-.416.59a4.074,4.074,0,0,1-2.718,1.7A4.125,4.125,0,0,1,11.908,36ZM5.454,11.437a.293.293,0,0,0-.136.034.425.425,0,0,0-.212.267L3.635,16.411a.642.642,0,0,0,.4.808l.295.1a6.914,6.914,0,0,1,4.278,4.5l.071.215a7.283,7.283,0,0,1-.829,6.521.661.661,0,0,0,.065.914L11.642,32.3a.454.454,0,0,0,.279.094.585.585,0,0,0,.06,0,.487.487,0,0,0,.327-.215l.416-.59a6.83,6.83,0,0,1,5.347-2.9l.152,0a6.8,6.8,0,0,1,5.67,2.952l.212.308a.488.488,0,0,0,.327.215.362.362,0,0,0,.072.007.432.432,0,0,0,.267-.1l3.71-2.8a.67.67,0,0,0,.123-.889l-.467-.676a7.14,7.14,0,0,1-.959-6.046,7.047,7.047,0,0,1,4.486-4.7l.363-.123a.628.628,0,0,0,.343-.787l-1.417-4.538a.567.567,0,0,0-.279-.347.421.421,0,0,0-.2-.05.435.435,0,0,0-.138.023l-.611.2a6.694,6.694,0,0,1-2.116.343,6.8,6.8,0,0,1-4.061-1.358l-.194-.146a6.822,6.822,0,0,1-2.679-5.463l0-.5a.636.636,0,0,0-.181-.457.456.456,0,0,0-.329-.146L15.585,3.6a.564.564,0,0,0-.512.6l0,.436a7.072,7.072,0,0,1-2.739,5.57l-.232.177A7.121,7.121,0,0,1,7.818,11.83a6.984,6.984,0,0,1-2.26-.375.323.323,0,0,0-.1-.018ZM18,24.3A6.3,6.3,0,1,1,24.3,18,6.307,6.307,0,0,1,18,24.3Zm0-9A2.7,2.7,0,1,0,20.7,18,2.7,2.7,0,0,0,18,15.3Z" transform="translate(-0.445 0.453)"/>
    </clipPath>
  </defs>
  <g id="Group_312" data-name="Group 312" transform="translate(0.445 -0.453)">
    <path id="Color-2" data-name="Color" d="M11.908,36a4,4,0,0,1-2.441-.829L5.738,32.339a4.25,4.25,0,0,1-.881-5.788,3.669,3.669,0,0,0,.416-3.342l-.1-.3a3.308,3.308,0,0,0-2.012-2.181l-.295-.1A4.22,4.22,0,0,1,.2,15.33L1.67,10.66a4.007,4.007,0,0,1,2.023-2.4,3.866,3.866,0,0,1,1.758-.422,3.922,3.922,0,0,1,1.271.213,3.37,3.37,0,0,0,1.091.181A3.506,3.506,0,0,0,9.92,7.515l.232-.177a3.44,3.44,0,0,0,1.32-2.718l0-.434A4.164,4.164,0,0,1,15.583,0l4.591,0a4.041,4.041,0,0,1,2.877,1.207,4.214,4.214,0,0,1,1.228,3.015l0,.5A3.208,3.208,0,0,0,25.525,7.3l.193.146a3.172,3.172,0,0,0,1.892.634,3.063,3.063,0,0,0,.976-.159l.611-.2a4.053,4.053,0,0,1,1.28-.209,3.992,3.992,0,0,1,1.837.447,4.142,4.142,0,0,1,2.077,2.48l1.416,4.538a4.236,4.236,0,0,1-2.637,5.273l-.361.12a3.459,3.459,0,0,0-2.179,2.315,3.518,3.518,0,0,0,.467,2.974l.468.674a4.29,4.29,0,0,1-.914,5.813l-3.71,2.8a4.006,4.006,0,0,1-2.434.822,4.141,4.141,0,0,1-.646-.051,4.07,4.07,0,0,1-2.717-1.724l-.212-.309a3.135,3.135,0,0,0-2.539-1.4q-.078,0-.157,0a3.183,3.183,0,0,0-2.569,1.38l-.416.59a4.074,4.074,0,0,1-2.718,1.7A4.125,4.125,0,0,1,11.908,36ZM5.454,11.437a.293.293,0,0,0-.136.034.425.425,0,0,0-.212.267L3.635,16.411a.642.642,0,0,0,.4.808l.295.1a6.914,6.914,0,0,1,4.278,4.5l.071.215a7.283,7.283,0,0,1-.829,6.521.661.661,0,0,0,.065.914L11.642,32.3a.454.454,0,0,0,.279.094.585.585,0,0,0,.06,0,.487.487,0,0,0,.327-.215l.416-.59a6.83,6.83,0,0,1,5.347-2.9l.152,0a6.8,6.8,0,0,1,5.67,2.952l.212.308a.488.488,0,0,0,.327.215.362.362,0,0,0,.072.007.432.432,0,0,0,.267-.1l3.71-2.8a.67.67,0,0,0,.123-.889l-.467-.676a7.14,7.14,0,0,1-.959-6.046,7.047,7.047,0,0,1,4.486-4.7l.363-.123a.628.628,0,0,0,.343-.787l-1.417-4.538a.567.567,0,0,0-.279-.347.421.421,0,0,0-.2-.05.435.435,0,0,0-.138.023l-.611.2a6.694,6.694,0,0,1-2.116.343,6.8,6.8,0,0,1-4.061-1.358l-.194-.146a6.822,6.822,0,0,1-2.679-5.463l0-.5a.636.636,0,0,0-.181-.457.456.456,0,0,0-.329-.146L15.585,3.6a.564.564,0,0,0-.512.6l0,.436a7.072,7.072,0,0,1-2.739,5.57l-.232.177A7.121,7.121,0,0,1,7.818,11.83a6.984,6.984,0,0,1-2.26-.375.323.323,0,0,0-.1-.018ZM18,24.3A6.3,6.3,0,1,1,24.3,18,6.307,6.307,0,0,1,18,24.3Zm0-9A2.7,2.7,0,1,0,20.7,18,2.7,2.7,0,0,0,18,15.3Z" transform="translate(-0.445 0.453)"/>
  </g>
</svg>
