<svg id="Group_203" data-name="Group 203" xmlns="http://www.w3.org/2000/svg" xmlns:xlink="http://www.w3.org/1999/xlink" width="39.854" height="27.898" viewBox="0 0 39.854 27.898">
  <defs>
    <clipPath id="clip-path">
      <path id="Color" d="M23.912,27.9H5.977A5.985,5.985,0,0,1,0,21.919V5.977A5.984,5.984,0,0,1,5.977,0H23.912a5.985,5.985,0,0,1,5.979,5.977V8.872L34.2,4.885a3.392,3.392,0,0,1,2.307-.9,3.433,3.433,0,0,1,1.38.288,3.2,3.2,0,0,1,1.969,2.957V20.666a3.2,3.2,0,0,1-1.969,2.957,3.41,3.41,0,0,1-1.381.289,3.374,3.374,0,0,1-2.306-.9l-4.306-3.983v2.891A5.986,5.986,0,0,1,23.912,27.9ZM5.977,3.985A2,2,0,0,0,3.985,5.977V21.919a2,2,0,0,0,1.992,1.992H23.912A2,2,0,0,0,25.9,21.919V5.977a2,2,0,0,0-1.992-1.992ZM35.868,8.77l-5.6,5.179,5.6,5.181Z" transform="translate(0 0)"/>
    </clipPath>
  </defs>
  <path id="Color-2" data-name="Color" d="M23.912,27.9H5.977A5.985,5.985,0,0,1,0,21.919V5.977A5.984,5.984,0,0,1,5.977,0H23.912a5.985,5.985,0,0,1,5.979,5.977V8.872L34.2,4.885a3.392,3.392,0,0,1,2.307-.9,3.433,3.433,0,0,1,1.38.288,3.2,3.2,0,0,1,1.969,2.957V20.666a3.2,3.2,0,0,1-1.969,2.957,3.41,3.41,0,0,1-1.381.289,3.374,3.374,0,0,1-2.306-.9l-4.306-3.983v2.891A5.986,5.986,0,0,1,23.912,27.9ZM5.977,3.985A2,2,0,0,0,3.985,5.977V21.919a2,2,0,0,0,1.992,1.992H23.912A2,2,0,0,0,25.9,21.919V5.977a2,2,0,0,0-1.992-1.992ZM35.868,8.77l-5.6,5.179,5.6,5.181Z" transform="translate(0 0)"/>
</svg>
