<svg xmlns="http://www.w3.org/2000/svg" xmlns:xlink="http://www.w3.org/1999/xlink" width="42.581" height="42.581" viewBox="0 0 42.581 42.581">
  <defs>
    <clipPath id="clip-path">
      <path id="Color" d="M21.291,42.581A21.291,21.291,0,1,1,42.581,21.291,21.315,21.315,0,0,1,21.291,42.581ZM6.306,29.379a17.022,17.022,0,0,0,21.6,7.607,4.829,4.829,0,0,0-1.094-2.3l-.081-.123c-.249-.379-.505-.769-.734-1.169-2.1-3.661-.544-6.272.834-8.577l.213-.358a6.247,6.247,0,0,0,.611-3.116,15.65,15.65,0,0,1,.293-2.922c.862-3.93,5.109-4.96,8.228-5.392a17.044,17.044,0,0,0-7.082-6.862,9.829,9.829,0,0,1-3.016,3.972,18.067,18.067,0,0,1-1.931,1.273l-.018.011-.013.008a6.167,6.167,0,0,0-2.369,1.941c-.793,1.454-.793,3.093-.793,4.99,0,2.937,0,6.592-3.652,9.449a10.551,10.551,0,0,1-6.68,2.154A17.6,17.6,0,0,1,6.306,29.379ZM37.783,17.113c-1.994.239-5.332.64-5.68,2.219a12.222,12.222,0,0,0-.2,2.154V21.5a9.982,9.982,0,0,1-1.2,5.126L30.486,27c-1.343,2.249-1.628,2.835-.8,4.273.2.344.421.68.638,1.005l.035.052A13.2,13.2,0,0,1,31.7,34.742a16.855,16.855,0,0,0,6.084-17.629ZM21.291,4.258A16.958,16.958,0,0,0,4.541,24.3a16.482,16.482,0,0,0,6.038,1.42,6.464,6.464,0,0,0,4.1-1.269c1.924-1.5,2.018-3.21,2.018-6.1a13.881,13.881,0,0,1,1.313-7.03,9.625,9.625,0,0,1,3.938-3.564l.094-.056a13.215,13.215,0,0,0,1.41-.923A5.612,5.612,0,0,0,25.1,4.7,16.923,16.923,0,0,0,21.291,4.258Z" transform="translate(0 0)"/>
    </clipPath>
  </defs>
  <g id="Group_310" data-name="Group 310" transform="translate(0 0)">
    <path id="Color-2" data-name="Color" d="M21.291,42.581A21.291,21.291,0,1,1,42.581,21.291,21.315,21.315,0,0,1,21.291,42.581ZM6.306,29.379a17.022,17.022,0,0,0,21.6,7.607,4.829,4.829,0,0,0-1.094-2.3l-.081-.123c-.249-.379-.505-.769-.734-1.169-2.1-3.661-.544-6.272.834-8.577l.213-.358a6.247,6.247,0,0,0,.611-3.116,15.65,15.65,0,0,1,.293-2.922c.862-3.93,5.109-4.96,8.228-5.392a17.044,17.044,0,0,0-7.082-6.862,9.829,9.829,0,0,1-3.016,3.972,18.067,18.067,0,0,1-1.931,1.273l-.018.011-.013.008a6.167,6.167,0,0,0-2.369,1.941c-.793,1.454-.793,3.093-.793,4.99,0,2.937,0,6.592-3.652,9.449a10.551,10.551,0,0,1-6.68,2.154A17.6,17.6,0,0,1,6.306,29.379ZM37.783,17.113c-1.994.239-5.332.64-5.68,2.219a12.222,12.222,0,0,0-.2,2.154V21.5a9.982,9.982,0,0,1-1.2,5.126L30.486,27c-1.343,2.249-1.628,2.835-.8,4.273.2.344.421.68.638,1.005l.035.052A13.2,13.2,0,0,1,31.7,34.742a16.855,16.855,0,0,0,6.084-17.629ZM21.291,4.258A16.958,16.958,0,0,0,4.541,24.3a16.482,16.482,0,0,0,6.038,1.42,6.464,6.464,0,0,0,4.1-1.269c1.924-1.5,2.018-3.21,2.018-6.1a13.881,13.881,0,0,1,1.313-7.03,9.625,9.625,0,0,1,3.938-3.564l.094-.056a13.215,13.215,0,0,0,1.41-.923A5.612,5.612,0,0,0,25.1,4.7,16.923,16.923,0,0,0,21.291,4.258Z" transform="translate(0 0)"/>
  </g>
</svg>
